<?xml version="1.0"?>
<svg xmlns:rdf="http://www.w3.org/1999/02/22-rdf-syntax-ns#" xmlns="http://www.w3.org/2000/svg" xmlns:cc="http://creativecommons.org/ns#" xmlns:dc="http://purl.org/dc/elements/1.1/" xmlns:svg="http://www.w3.org/2000/svg" id="svg2390" viewBox="0 0 500 500" version="1.0">
  <g id="capa1">
    <g id="g3223" transform="translate(2.7997 -1.0785)">
      <g id="g9" transform="translate(33.889 -233.04)" fill="#090">
        <path id="path11" d="m0.713 413.26h141.73v-141.74h141.74v141.74h141.73v141.73h-141.73v141.73h-141.73v-141.73h-141.74l0.003-141.73z" fill="#090"/>
      </g>
      <path id="path3220" d="m310.43 209.48c1.07 3.7 1.65 7.86 1.65 12.56 0 8.31-1.82 16.33-5.08 23.67 4.78-3.41 9.08-6.9 13.23-10.12 14.7-11.4 28.58-15.37 39.32-16.03 5.76-0.35 15.2-4.79 15.2-10.08h-64.32zm-2.1 12.56c0-29.24-26.76-37.17-50.56-40.97-23.98-3.83-51.71-12.39-51.71-38 0-12.56 7.85-25.04 21.31-25.04 19.83 0 23.3 15.04 23.38 17.19 0.09 2.15-5.77 3.67-6.52 7.93-0.91 5.12 1.32 10.24 4.54 14.37 2.88 3.69 7.02 11.16 11.15 10.49 4.43-0.7 6.03-8.26 7.27-13.21 1.24-4.96 3.39-9.17 1.32-13.8-2.55-5.73-5.12-2.89-7.1-7.02-1.13-2.37-5.53-26.35-32.05-26.35-18.5 0-35.36 15.28-37.01 32.63-2.37 24.83 7.43 34.2 28.09 43.95 32.17 15.18 65.59 14.54 65.59 35.85 0 20.82-7.1 31.88-19.33 39.98-2.11 1.4-6.12 3.24-10.05 4.59v14.62c0.81-0.11 1.63-0.23 2.45-0.37 27.42-4.63 49.23-29.08 49.23-56.84zm-31.65-12.56h-157.03c0 5.29 9.44 9.73 15.2 10.08 10.74 0.66 24.62 4.63 39.32 16.03 15.02 11.64 31.94 26.97 67.33 28.46v45.03c2.06 0.37 4.35 0.58 6.86 0.58 1.05 0 2.68-0.07 4.54-0.26v-47.53c18.99-4.16 29.38-20.37 29.38-41.81 0-4.41-1.81-7.73-5.6-10.58zm-35.18 133.99c3.19 1.95 7.12 2.8 11.4 3.38v-17.58c-3.81 0.25-7.65 0.2-11.4-0.18v14.38zm37.75 14.22c-6.11-4.63-14.04-5.7-28.17-7.44-16.72-2.05-21.13-12.58-21.63-23.67-4.34-1.44-8.35-3.44-11.82-6.06-0.8 3.78-1.16 7.71-1.16 11.72 0 16.69 17.99 23.78 30.73 25.61 13.22 1.9 25.61 2.4 27.34 3.14 1.76 0.75 2.81 1.57 3.56 2.4 0.74 0.82 2.72 1.98 3.96 1.15 1.24-0.82 0.25-4.54-2.81-6.85zm-45.1-51.23c1.07-1.1 2.29-2.06 3.6-2.9v-10.21c-3.18 1.8-5.92 3.8-8.28 6.01 0 2.75 1.64 5.25 4.68 7.1zm36.35-4.78c0 7.93-10.41 11.73-22.14 11.73s-22.64-4.63-22.64-14.05c0-11.62 4.78-15.76 12.03-17.63v-16.31c-15.91 1.23-29.05 15.86-29.05 28.33 0 9.08 1.61 23.33 26.77 30.56 26.43 7.6 56.84-9.09 56.84-25.77 0-8.1-4.15-12.02-9.59-13.72-4.51-1.41-9.86-3.42-26.07 1.26v10.3c2.56-0.71 4.83-1.15 7.07-1.15 4.63 0 6.78 1.49 6.78 6.45zm-86.41 92.85h126.22c0-2.06-6.69-5.04-12.47-5.53-5.78-0.5-13.54-0.82-15.28-2.32-2.4-2.06-6.22-3.49-11.24-4.71-5.12-1.24-18.42-2.31-18.42-9.58v-10.09c-2.09-0.21-4.17-0.44-6.23-0.74-1.61-0.23-3.35-0.55-5.17-0.98v11.81c0 7.27-13.3 8.34-18.42 9.58-5.02 1.22-8.84 2.65-11.24 4.71-1.74 1.5-9.5 1.82-15.28 2.32-5.78 0.49-12.47 3.47-12.47 5.53z" fill="#fff"/>
    </g>
  </g>
  <metadata>
    <rdf:RDF>
      <cc:Work>
        <dc:format>image/svg+xml</dc:format>
        <dc:type rdf:resource="http://purl.org/dc/dcmitype/StillImage"/>
        <cc:license rdf:resource="http://creativecommons.org/licenses/publicdomain/"/>
        <dc:publisher>
          <cc:Agent rdf:about="http://openclipart.org/">
            <dc:title>Openclipart</dc:title>
          </cc:Agent>
        </dc:publisher>
        <dc:title>Farmacia 2</dc:title>
        <dc:date>2012-05-11T05:27:52</dc:date>
        <dc:description>Pharmacy symbol</dc:description>
        <dc:source>http://openclipart.org/detail/169980/farmacia-2-by-rferran</dc:source>
        <dc:creator>
          <cc:Agent>
            <dc:title>rferran</dc:title>
          </cc:Agent>
        </dc:creator>
        <dc:subject>
          <rdf:Bag>
            <rdf:li>apotecari</rdf:li>
            <rdf:li>apothecary</rdf:li>
            <rdf:li>clip art</rdf:li>
            <rdf:li>clipart</rdf:li>
            <rdf:li>cup</rdf:li>
            <rdf:li>farmacia</rdf:li>
            <rdf:li>higia</rdf:li>
            <rdf:li>higya</rdf:li>
            <rdf:li>medecina</rdf:li>
            <rdf:li>medicina</rdf:li>
            <rdf:li>medicine</rdf:li>
            <rdf:li>pharmacy</rdf:li>
            <rdf:li>snake</rdf:li>
            <rdf:li>symbol</rdf:li>
          </rdf:Bag>
        </dc:subject>
      </cc:Work>
      <cc:License rdf:about="http://creativecommons.org/licenses/publicdomain/">
        <cc:permits rdf:resource="http://creativecommons.org/ns#Reproduction"/>
        <cc:permits rdf:resource="http://creativecommons.org/ns#Distribution"/>
        <cc:permits rdf:resource="http://creativecommons.org/ns#DerivativeWorks"/>
      </cc:License>
    </rdf:RDF>
  </metadata>
</svg>
